<?xml version="1.0" encoding="UTF-8"?>
<svg id="Layer_1" xmlns="http://www.w3.org/2000/svg" version="1.1" xmlns:xlink="http://www.w3.org/1999/xlink" viewBox="0 0 585 457.32">
  <!-- Generator: Adobe Illustrator 29.4.0, SVG Export Plug-In . SVG Version: 2.1.0 Build 152)  -->
  <defs>
    <style>
      .st0 {
        fill: #d3dae0;
      }

      .st1 {
        fill: #fff;
      }

      .st2, .st3, .st4 {
        fill: none;
      }

      .st5 {
        fill: #6e767c;
      }

      .st3 {
        stroke: #d6d6d6;
      }

      .st3, .st4 {
        stroke-linejoin: round;
        stroke-width: 2px;
      }

      .st6 {
        isolation: isolate;
      }

      .st4 {
        stroke: #fff;
      }

      .st7 {
        fill: #d6d6d6;
      }

      .st8 {
        clip-path: url(#clippath);
      }

      .st9 {
        fill: #f7f7f7;
      }
    </style>
    <clipPath id="clippath">
      <rect class="st2" y="0" width="580" height="457.32"/>
    </clipPath>
  </defs>
  <g class="st6" onclick="palacesMap(0)">
    <g class="st8">
      <g>
        <path class="st5" d="M568.58,248.82c-5.76-3.55-12.51-9.59-7.79-14.3s8.83-14.11,2.74-11.42-15.48,19.91-28.25,18.02-17.47-4.15-22.84,0-4.03,12.22-14.11,12.22c-.56,0-1.1,0-1.61.01-5.26,10.44-17.82,35.11-20.93,38.74-3.88,4.52-26.94,19.71-43.76,22.03-18.6,2.57-31.43-6.26-38.32-11-12.06-8.29-18.43-10.78-21.68-11.38-2.36.47-8.48,6.24-11.8,9.36-4.1,3.86-7.64,7.2-10.8,8.78-1.5.75-4.32,3.76-6.81,6.41-6.02,6.41-13.51,14.4-23.25,16.43-2.8.55-5.65.81-8.51.78-11,0-23.64-3.11-31.91-5.15-1.52-.37-2.89-.71-4.08-.99-7.63-1.77-13.36-11.6-18.9-21.1-2.81-4.82-5.99-10.27-8.02-11.83-3.47-2.67-14.5-4.12-24.24-5.4-5.86-.77-11.92-1.57-17.35-2.69-13.26-2.74-28.97-15.95-38.36-23.85-2.17-1.83-4.22-3.55-5.06-4.11-1.85-1.23-6.01-3.46-10.42-5.82-6.54-3.5-13.3-7.11-16.94-9.76-4.5-3.27-8.22-10.35-12.28-18.59-.88-1.78-1.97-4-2.36-4.56.27.34.59.64.96.87l.57-.85c-3.11-2.39-6.35-4.62-9.7-6.65-8.06-4.7-25.53-13.43-30.23-17.47s-21.5-14.11-23.51-10.08,4.7,15.45,0,18.81-22.84,11.42-24.85,18.81-4.03,7.39-11.42,12.76-8.1,20.15-11.78,22.84-5.06,4.03,0,6.05c5.06,2.02,16.48,11.42,21.18,12.09,4.7.67,14.11,0,14.11,0,0,0,1.34,5.37,6.05,4.7s21.5-8.73,24.85-6.05,8.06,10.75,8.73,14.11,6.92,13.43,4.8,18.14.1,16.12,0,20.15-4.8,10.75-6.82,14.78-4.04,12.77-2.02,15.46-8.06,19.48-3.36,22.17,12.19,2.02,12.19,2.02c0,0,7.96,4.7,11.32,4.7s11.42-9.4,11.42-9.4c0,0,8.99-7.39,12.89-6.72s11.96-10.75,12.63-13.43,5.36-7.39,9.06-3.36,11.09,20.83,11.09,22.84,8.73,13.43,9.4,15.45,3.36,12.09,3.36,16.12,15.45,12.09,16.12,16.12,6.05,17.46,11.42,16.79,15.27-.67,16.7-2.69,2.11-10.75,6.81-12.09c2.63-.7,5.13-1.84,7.39-3.36,0,0,6.05,7.39,8.73,9.4s13.43,6.05,19.48,4.7,10.75-6.72,12.76-9.4,5.37-8.06,9.4-6.05,10.08.67,13.43-.67,5.37-7.39,6.72-9.4,9.4-3.36,11.42-4.03,4.7-8.73,7.39-9.4,4.7-4.7,6.05-1.34,6.05,14.78,8.73,14.78,8.06-2.69,15.45,1.34,14.11-3.36,14.11-5.37,6.72-12.09,9.4-8.73,0,12.76-.67,16.12,2.69,14.11,2.02,18.14,0,11.42,3.36,14.11,25.53,6.05,30.23,8.73,18.81,0,21.5-2.69,8.06-12.09,11.42-14.11,2.02-9.4,0-12.09,5.37-10.08,10.08-8.73,8.73-8.06,10.75-10.75,9.4-2.02,13.43-4.7,9.4-10.75,13.43-10.08,13.44-.67,14.78-3.36-1.34-8.73,3.36-10.75,6.72-9.4,6.05-12.09-4.45-5.37.13-6.05c4.27-.43,7.9-3.32,9.28-7.39,1.34-4.03,2.69-8.06,8.06-9.4s4.7-10.75,0-11.42-18.81-4.03-18.14-6.72c.67-2.69-2.02-13.43,2.69-14.78s12.76-4.7,15.45-12.76-2.51-16.12,3.78-20.15,20.45-4.7,25.46-2.02,8.81-2.02,10.61-7.39,3.91-16.42-1.85-19.96"/>
        <path class="st9" d="M137.68,215.12c3.15,2.29,10.06,5.98,16.15,9.24,4.97,2.66,9.27,4.96,11.6,6.51,1.36.91,3.37,2.6,6.15,4.94,8.29,6.97,23.71,19.93,34.67,22.2,5.2,1.08,11.22,1.87,17.04,2.63,12.98,1.71,24.19,3.18,30.04,7.68,3.75,2.88,7.09,8.61,10.96,15.25,3.46,5.93,9.25,15.86,12.58,16.63,1.26.29,2.72.65,4.33,1.05,9.93,2.44,26.54,6.53,36.77,4.4,6.69-1.39,13.1-8.23,18.25-13.71,3.63-3.87,6.76-7.21,10.01-8.83,1.84-.92,5.4-4.27,8.54-7.23,7.39-6.96,14.37-13.53,21.02-12.42,6.4,1.07,15.17,5.47,26.8,13.46,8.52,5.86,18,11.42,31.82,9.51,14.84-2.05,35.96-16.31,38.28-18.99,1.69-2.09,9.67-17.16,17.53-32.64-1.7-.24-3.35-.77-4.87-1.57-5.52-2.76-6.21-3.7-4.83-11.17s-1.38-17.12-3.45-16.43,4.83-14.49,8.28-16.56,6.9-11.04,4.14-13.8,3.45-.69,5.52-6.21-2.07-15.87-4.83-20.7-1.38-11.06-4.83-14.5-4.83-4.82-8.28-4.13,3.45-10.35,4.83-15.18,4.14-13.8,0-16.56-7.59-6.9-16.56-8.28-16.56-10.35-15.18-13.8,7.59-2.76,10.35-2.76,4.14-4.14,4.14-9.66,3.45-12.42-1.38-17.25-5.52-6.57-3.45-10.18,5.52-17.62.69-15.79-13.11,6.66-15.87,4.58,4.83-11.04.69-12.42-6.9-4.14-11.04,0-12.76,7.04-15.7,6.97-11.22,6.84-11.22,6.84c0,0-9.66-11.04-14.49-10.35-4.83.69-8.28.63-11.04-.03s-4.83,5.69-8.28,3.55-2.07-12.1-2.76-12.98-8.42-2.2-8.42-2.2c0,0-7.45-4.81-11.59-4.16-4.14.65-11.73,8.22-11.04,13.06.69,4.84,2.67,19.07-.04,18.86s-13.76-2.65-18.58,4.09c-4.83,6.73-10.35,12.94-8.97,15.7s3.02,12.42-.22,13.8-10.82.69-11.51,4.14,4.83,10.35,6.21,13.11,4.83,17.94,2.07,20.01-13.8,6.9-13.8,6.9c0,0-6.21-4.14-9.66-6.21s-6.21-15.18-15.87-19.32-22.08-3.45-27.6-1.38-18.63,10.19-18.63,10.19c0,0-18.85,1.55-20.12,6.38s.8,23.46-3.34,27.6-11.04,8.97-8.97,15.18,3.38,8.97-.38,13.11,4.45,11.73,0,17.25-18.94,9.66-21.01,10.35-10.35,5.52-12.42,9.66-4.83,14.49-9.66,16.56c-3.48,1.49-9.44,1.55-13.55.95,1.02,1.91,2.36,3.63,3.96,5.09"/>
        <path class="st9" d="M576.14,229.97c-5.91-3.64-12.85-9.85-8-14.68s9.06-14.49,2.82-11.73-15.91,20.44-29.02,18.5-17.94-4.27-23.46,0-4.14,12.55-14.49,12.55c-.58,0-1.12,0-1.66.01-5.4,10.72-18.3,36.06-21.49,39.79-3.98,4.64-27.67,20.25-44.95,22.63-19.1,2.64-32.28-6.43-39.36-11.3-12.39-8.52-18.93-11.07-22.27-11.69-2.42.48-8.72,6.41-12.12,9.62-4.21,3.97-7.85,7.39-11.1,9.02-1.54.77-4.44,3.86-6.99,6.58-6.18,6.59-13.88,14.79-23.88,16.87-2.88.56-5.8.83-8.74.8-11.29,0-24.28-3.2-32.78-5.29-1.56-.38-2.97-.73-4.19-1.01-7.84-1.82-13.72-11.91-19.42-21.67-2.88-4.95-6.15-10.55-8.24-12.15-3.56-2.74-14.9-4.23-24.9-5.55-6.02-.79-12.24-1.61-17.82-2.76-13.62-2.82-29.76-16.39-39.4-24.49-2.23-1.88-4.34-3.65-5.2-4.22-1.89-1.26-6.17-3.55-10.71-5.98-6.71-3.59-13.66-7.31-17.4-10.03-4.62-3.36-8.45-10.63-12.61-19.09-.9-1.83-2.03-4.11-2.43-4.68.01.01-.04,0-.03-.03-2.57-2.52-5.37-4.79-8.38-6.78-8.28-4.83-26.22-13.8-31.05-17.94s-22.08-14.49-24.15-10.35,4.83,15.87,0,19.32-23.45,11.74-25.52,19.33-4.14,7.59-11.73,13.11-8.32,20.7-12.1,23.46-5.2,4.14,0,6.21,16.92,11.73,21.75,12.42,14.49,0,14.49,0c0,0,1.38,5.52,6.21,4.83s22.08-8.97,25.53-6.21,8.28,11.04,8.97,14.49,7.1,13.8,4.93,18.63.1,16.56,0,20.7-4.93,11.04-7,15.18-4.14,13.11-2.06,15.87-8.28,20.01-3.45,22.77,12.52,2.07,12.52,2.07c0,0,8.18,4.83,11.63,4.83s11.73-9.67,11.73-9.67c0,0,9.24-7.59,13.24-6.9s12.29-11.04,12.98-13.8,5.51-7.59,9.31-3.45,11.39,21.39,11.39,23.46,8.97,13.8,9.66,15.87,3.45,12.42,3.45,16.56,15.87,12.42,16.56,16.56,6.21,17.94,11.73,17.25,15.68-.69,17.15-2.76,2.16-11.04,6.99-12.42c2.7-.72,5.27-1.89,7.59-3.45,0,0,6.21,7.59,8.97,9.66s13.8,6.21,20.01,4.83c6.21-1.38,11.04-6.9,13.11-9.66s5.52-8.28,9.66-6.21,10.35.69,13.8-.69,5.52-7.59,6.9-9.66,9.66-3.45,11.73-4.14,4.83-8.97,7.59-9.66,4.83-4.83,6.21-1.38,6.21,15.18,8.97,15.18,8.28-2.76,15.87,1.38,14.49-3.45,14.49-5.52,6.9-12.42,9.66-8.97,0,13.11-.69,16.56,2.76,14.49,2.07,18.63,0,11.73,3.45,14.49,26.22,6.21,31.05,8.97,19.32,0,22.08-2.76,8.28-12.42,11.73-14.49,2.07-9.66,0-12.42,5.52-10.35,10.35-8.97,8.97-8.28,11.04-11.04,9.66-2.07,13.8-4.83,9.66-11.04,13.8-10.35,13.8-.69,15.18-3.45-1.38-8.97,3.45-11.04,6.9-9.66,6.21-12.42-4.57-5.52.13-6.21,8.15-3.45,9.53-7.59,2.76-8.28,8.28-9.66,4.83-11.04,0-11.73-19.32-4.14-18.63-6.9-2.07-13.8,2.76-15.18,13.11-4.83,15.87-13.11-2.58-16.56,3.89-20.7,21-4.83,26.15-2.07c5.15,2.76,9.05-2.07,10.9-7.59s4.02-16.86-1.9-20.51"/>
        <path class="st7" d="M123.72,285.98c-5.12,0-12.55-5.62-16.33-9.79-2.37-2.61-5.63-8.26-8.24-12.79-1.06-2-2.25-3.93-3.56-5.77-.76-.51-4.35.47-6.56,3.42-2.43,3.23-9.19,7.92-9.47,8.12l-.81-1.18c.07-.05,6.86-4.75,9.14-7.8,2.49-3.32,6.83-4.86,8.51-3.74.58.39,1.5,1.93,3.99,6.24,2.58,4.48,5.79,10.05,8.06,12.54,4.31,4.74,11.54,9.65,15.7,9.3,4.57-.38,14.15-4.6,15.25-9.38,1.16-5.05,1.17-11.27.01-15.12-.82-2.75-.43-5.64,1.01-7.37.9-1.11,2.3-1.67,3.72-1.49.83.1,1.66.22,2.49.36,3.69.59,9.27,1.48,12.58-.31,3.88-2.09,2.9-9.34,2.89-9.4l1.31,1.03c.05.31,1.24,7.05-3.52,9.62-3.74,2.02-9.37,1.12-13.49.46-.94-.15-1.75-.28-2.42-.35-.94-.13-1.88.24-2.47.98-1.12,1.35-1.42,3.78-.74,6.04,1.22,4.07,1.23,10.59.01,15.86-1.31,5.67-11.59,10.07-16.52,10.48-.18.01-.36.02-.54.02"/>
        <path class="st3" d="M82.78,318.27s3.34,2.15,4.97,1.83,4.57-3,6.86-1.83,4.25,5.42,6.21,5.75,11.1-2.94,13.06-6.04,7.18-8.98,11.43-8.33,13.39,4.24,15.67,3.59,11.1-13.39,14.04-15.67,8.9-3.59,7.88-4.57,2.9-17.31,5.84-19.92,8.49-10.12,7.84-12.73-14.92-10.51-14.92-10.51"/>
        <path class="st3" d="M162.9,292.99s6.49,8.39,10.41,11.05,9.14,13.44,8.82,16.7-2.58,12.08.01,15.02,11.74,7.18,10.43,10.45-.65,11.1-3.92,11.76-14.69-3.27-17.96-4.57-13.71-6.53-15.67-5.88c-1.58.44-3.2.71-4.84.79"/>
        <path class="st3" d="M191.63,351.12s13.68.32,15.64,1.63,1.63,7.84-1.96,9.8-8.49,3.92-6.86,7.51,9.57,4.57,10.01,6.86.87,9.47,0,13.39-.54,8.16,2.73,8.16,11.76-1.31,13.39,0,6.26,4.11,4.11,10.71"/>
        <path class="st3" d="M192.57,346.22s13.52-2.29,17.86-2.94,9.89-4.9,12.83-4.24c2.68.58,5.32-1.12,5.9-3.8.03-.15.06-.29.08-.44.56-2.94-4.48-8.82,0-6.86s9.7,10.06,11.66,8.95,8.49-4.05,10.12-3.4,9.47-.98,10.78-1.96,6.53-6.2,7.84-1.96,0,9.14,2.29,10.45,8.16,6.2,8.16,9.47-1.63,4.72,3.92,8.56,14.04,4.83,16.65,4.17,4.9-2.29,6.53-1.31,7.18,9.47,8.82,12.08,2.65,12.03,2.65,12.03"/>
        <path class="st7" d="M306.22,359.35c-.01-.11-1.05-11.43-1.69-14.62-.71-3.54,2.69-10.34,5.13-12.44.5-.39.78-1.01.75-1.65-.06-1.37-1.36-3.15-3.31-4.54-3.11-2.21-5.17-9.48-5.24-9.78l1.63.07c.1.2,1.75,6.63,4.44,8.54,2.33,1.65,3.83,3.81,3.91,5.64.06,1.08-.41,2.12-1.25,2.8-2.1,1.8-5.26,8.08-4.66,11.07.65,3.27,1.67,14.3,1.71,14.77l-1.43.13Z"/>
        <path class="st7" d="M192.18,343.81l-1.1-.91c.28-.34,7.02-8.42,12.72-10.1,1.12-.33,2.26-.62,3.37-.91,4.22-1.09,8.2-2.11,8.88-4.54.29-1.06.56-2.35.84-3.71.68-3.35,1.33-6.52,2.63-7.74.88-.83,3.21-1.41,5.91-2.08,2.46-.61,5.84-1.45,6.4-2.28.81-1.5,1.53-3.04,2.15-4.62,1.64-3.8,3.69-8.54,5.42-10.48,2.77-3.12,9.24-5.2,12.82-4.13,3.21.96,5.8,1.63,5.84,1.64l1.03,1.72c.55.28-4.04-1.01-7.28-1.99-3.03-.91-8.96,1.03-11.34,3.71-1.57,1.77-3.65,6.58-5.17,10.1-.66,1.66-1.42,3.28-2.28,4.85-.81,1.21-3.39,1.92-7.24,2.88-2.18.54-4.66,1.15-5.27,1.73-.97.92-1.65,4.28-2.21,6.99-.28,1.39-.55,2.7-.86,3.81-.9,3.22-5.27,4.35-9.9,5.54-1.1.28-2.23.58-3.32.9-5.28,1.55-11.96,9.56-12.02,9.64"/>
        <path class="st7" d="M466.02,393.39c-.12-.99-1.16-9.74-.49-12.05.56-1.9-1.53-7.59-4.42-10.8-2.04-2.27-7.35-3.95-11.61-5.29-1.54-.48-2.99-.94-4.11-1.38-2.42-.93-3.92.45-6.58,3.17-1.2,1.27-2.47,2.47-3.82,3.58-1.12.9-2.39,1.97-3.72,3.11-4.75,4.03-9.66,8.2-12.6,8.48-2.7.25-7.35-.4-11.08-.92-1.06-.15-2.11-.29-3.17-.42-2.99-.33-4.75-5.34-6.31-9.76-.4-1.13-.77-2.2-1.13-3.05-.8-1.75-1.82-3.39-3.02-4.88-1.23-1.46-2.2-3.12-2.88-4.9-.23-.85-.38-1.72-.44-2.6-.22-2.28-.39-4.08-4.3-5.16-2.53-.64-5.09-1.14-7.67-1.51-4.54-.73-7.14-1.2-8.04-2.32-1.41-1.77-3.83-10.48-2.72-13.43.82-2.2-2.87-10.4-4.97-11.9-2.17-1.55-4.15-7.13-5.59-11.21-.2-.56-.38-1.08-.55-1.54-1.31-3.6-4.02-16.29-4.14-16.84l1.32-.99c.03.13,2.89,13.84,4.16,17.34.17.46.35.99.55,1.55,1.22,3.45,3.26,9.23,5.07,10.52,2.42,1.73,6.61,10.54,5.48,13.57-.84,2.24,1.25,10.47,2.5,12.04.6.75,4.08,1.31,7.15,1.8,2.63.38,5.25.89,7.83,1.55,4.85,1.35,5.11,4.03,5.34,6.4.05.78.18,1.56.38,2.31.64,1.63,1.53,3.14,2.66,4.47,1.28,1.59,2.35,3.33,3.2,5.18.37.89.75,1.97,1.16,3.12,1.28,3.62,3.02,8.59,5.12,8.82.85.09,1.95.25,3.21.42,3.46.48,8.2,1.15,10.75.91,2.49-.23,7.65-4.62,11.8-8.14,1.34-1.14,2.61-2.22,3.75-3.13,1.3-1.08,2.53-2.23,3.69-3.46,2.52-2.59,4.7-4.82,8.11-3.51,1.09.42,2.52.87,4.03,1.35,4.43,1.4,9.94,3.14,12.24,5.7,3.04,3.38,5.47,9.62,4.73,12.16-.5,1.72.22,8.87.53,11.48l-1.41.18Z"/>
        <path class="st3" d="M425.76,297.4s-.61,7.74,0,8.85,1.59,12.21,2.9,14.83,6.53,8.49,8.82,8.82,18.94-.98,22.2,0,15.67,6.11,17.63,7.96,4.9,11.65,7.84,13.27,6.86,3.14,7.18,5.16,2.29,5.61,1.63,7.57-.06,5.55,1.6,6.86-1.25,7.42-1.25,7.42"/>
        <path class="st3" d="M490.97,256.73c1.9.43,3.66,1.34,5.12,2.63,2.78,2.29.81,11.76,0,14.04s-1.54,7.18,1.44,9.14,13.1,5.23,14.73,5.88c1.63.65,7.35,6.66,7.35,6.66"/>
        <path class="st3" d="M407.64,280.22s7.1-10.08,10.96-14.65,8.76-18.25,10.72-23.17,7.84-13.08,9.47-18.96,3.27-12.74,7.18-12.74,10.12,1.31,11.76,1.63c3.46.31,6.94-.25,10.12-1.63,3.27-1.63,9.23-5.07,9.23-5.07"/>
        <path class="st3" d="M359.28,271.71s-3.94-5.68-5.97-7.87-9.54-6.76-7.58-10.02,3.92-5.88,5.23-8.16.15-8.49,2.36-9.8,8.74-1.63,9.72-5.88,2.94-11.1,0-13.39-5.88-8.16-5.88-8.16l2.61-2.79s7.51,5.73,11.76,5.73,12.73,1.63,18.29,2.61,14.45,4.24,17.84,7.18,6.77,6.2,10.96,5.88,14.63-2.61,15.61-3.59,4.57,0,4.57,0"/>
        <path class="st7" d="M259.43,275.58l-1.25-1.75c.06-.36,1.05-6.91,5.11-10.53,1.69-1.44,3.54-2.68,5.51-3.7,1.89-1.06,3.51-1.97,4.13-3.19.99-1.97,1.77-9.05,2.01-11.9l-3.29-5.47c-.2-.34-.1-.78.24-.98.22-.13.48-.14.71-.02,1.03.55,4.09,1.91,5.77,1.68,1.64-.24,6.4-2.18,9.24-3.34.71-.3,1.43-.59,2.15-.87.11-.04,11.12-4.01,13.47-1.81,1.56,1.46,7.03,3.39,11.38,3.07,4.15-.3,13.19,2.76,19.17,4.78.74.25,1.44.49,2.06.69,5.69,1.9,11.37,8.97,11.61,9.27l-1.12.89c-.06-.07-5.66-7.04-10.94-8.8-.69-.23-1.38-.46-2.07-.7-5.51-1.87-14.74-4.99-18.61-4.71-4.57.33-10.45-1.59-12.46-3.46-1.12-1.05-8.4.77-12,2.11-.42.16-1.18.47-2.11.85-3.09,1.26-7.76,3.17-9.58,3.43-1.55.06-3.1-.23-4.52-.87l2.23,3.71c.08.13.11.28.1.43-.03.41-.83,9.97-2.18,12.66-.81,1.61-2.61,2.62-4.7,3.8-1.88.97-3.64,2.15-5.26,3.52-3.68,3.29-4.55,10.78-4.81,11.21"/>
        <path class="st3" d="M165.22,185.03s12.01,7.39,16.58,11.64,15.02,8.14,16.65,8.97,13.39,11.93,15.35,13.24,11.1,5.23,13.39,8.82,10.45,8.49,12.74,9.47,20.9.74,22.2,1.51,10.12,0,10.12,0c0,0,8.82-3.14,10.45-4.94s2.51-6.04,2.56-8.33-2.89-9.8-3.54-11.43,2.94-2.94-.98-3.26-9.14-1.63-10.12-2.61-1.96-7.84-.65-8.82,3.27-7.51,2.61-8.49-3.27-5.76-3.27-5.76c0,0,4.24-3.38,3.92-5.02s-2.61-3.92-4.57-5.55-1.95-2.29-1.95-5.22-.65-6.2-2.61-7.51c-2.74-1.48-5.57-2.78-8.47-3.92"/>
        <path class="st7" d="M195.45,204.29l-1.34-.51c.12-.3,2.9-7.45,7.83-8.15,1.11-.16,2.21-.28,3.27-.39,2.64-.29,5.62-.61,5.96-1.45.78-1.95,6.04-5.63,7.23-6.25,1.24-.64,8.18-1.19,10.38-1.35.78-1.53,3.77-7.38,4.64-8.83,1.13-1.88,8.46-7.46,10.14-8.13.93-.37,2.43-4,3.24-5.94.37-.9.69-1.67.96-2.2.78-1.55,3.45-2.43,5.61-3.14.6-.17,1.18-.39,1.74-.65.29-.3.87-.46,2.26-.84,2.13-.58,6.1-1.66,6.68-3.53.65-2.08.38-8.29.16-13.29-.1-2.21-.19-4.3-.19-5.76,0-4.84,3.86-11.47,9.61-13.63,5.43-2.04,9.75-5.18,10-6.63.31-1.85.98-9.88.92-9.96.05-.19.09-.38.11-.57l1.3.87c-.02.34-.58,7.94-.91,9.91-.41,2.43-5.86,5.84-10.9,7.74-5.11,1.92-8.68,8.02-8.68,12.29,0,1.43.09,3.51.19,5.7.23,5.37.5,11.45-.22,13.77-.81,2.62-4.94,3.74-7.67,4.49-.57.13-1.13.31-1.68.52-.68.45-1.45.78-2.25.95-1.59.52-4.26,1.4-4.77,2.42-.24.49-.55,1.24-.92,2.11-1.44,3.47-2.65,6.17-4.03,6.72-1.58.63-8.57,6.07-9.45,7.54-.96,1.59-4.74,9.02-4.78,9.1-.11.22-.34.37-.59.39-4.47.32-9.52.86-10.23,1.23-1.41.73-6.03,4.19-6.56,5.51-.66,1.64-3.37,1.93-7.13,2.34-1.05.11-2.14.23-3.23.39-4.11.59-6.67,7.18-6.7,7.25"/>
        <path class="st3" d="M282.36,211.05s6.22-2.31,11.12-1.65,12.22.37,13.46,1.65,11.36,2.31,12.99,0,5.55-3.61,7.18-3.29,11.76,4.1,12.73,4.66,13.46,0,13.46,0l3.52-2.23"/>
        <path class="st7" d="M359.81,207.85l-1.4-.27c.17-.89,1.04-5.37,1.74-6.42-.12-1.19-.4-2.36-.83-3.48-.47-1.27-.79-2.6-.93-3.96,0-1.55-1.53-4.55-2.01-5.27-.36-.08-1.28-.2-2.1-.31-4.58-.61-8.45-1.21-9.45-2.46-1.46-1.83-5.35-4.52-6.1-4.23-1.27,1.72-11.65,1.16-13.04.11-.37-.28-.9-.76-1.56-1.37-1.55-1.43-4.15-3.83-5.59-4.04-1.7-.25-11.32-.1-15.94-.03-1.4.02-2.45.04-2.86.04-2.15,0-2.55-3.82-2.87-6.88-.05-.52-.11-1.03-.18-1.55-.25-1.51,1.79-3.17,5.17-5.72,1.12-.75,2.15-1.62,3.08-2.6.98-1.63,3.01-8.38,1.43-10.28-2.08-2.51-4.48-11.62-4.42-16.79.05-4.44.02-9.42,0-10.75-1.27-1.02-6.57-5.29-8.06-7.07-1.72-2.07-2.88-7.18-2.92-7.37l1.72,1.06s.8,3.6,2.3,5.4c1.57,1.88,8.05,7.03,8.12,7.08.17.13.27.34.27.55,0,.06.06,5.95,0,11.12-.06,5.2,2.35,13.76,4.09,15.86,2.26,2.73-.41,10.43-1.31,11.93-.99,1.17-2.16,2.18-3.45,3.01-1.54,1.16-4.75,3.57-4.62,4.34.07.42.13.98.2,1.63.39,3.72.88,5.6,1.45,5.6.42,0,1.45-.01,2.84-.04,5.02-.08,14.36-.22,16.17.04,1.88.27,4.46,2.66,6.36,4.4.61.56,1.13,1.04,1.45,1.28,1,.75,10.07,1.09,11.1.13.27-.35.7-.55,1.14-.53h.03c2.04,0,6,3.35,7.13,4.78.73.91,6.19,1.63,8.52,1.94,2.29.3,2.59.35,2.85.61.49.49,2.49,4.24,2.49,6.38.16,1.21.44,2.39.86,3.53.77,2.47,1.18,3.91.65,4.7-.69,1.91-1.21,3.88-1.52,5.89"/>
        <path class="st7" d="M360.17,197.71l-.59-1.3c3.72-1.67,7.36-3.52,10.89-5.56,2-1.33,4.45-5.12,6.08-7.62.68-1.04,1.21-1.87,1.6-2.35,1.6-1.99,10.08-4.89,11.76-5.46,3.08-1.03,10.35-6.18,10.62-8.86.05-.68.05-1.36-.02-2.03-.08-1.27-.16-2.47.67-3.41.75-.85,2.06-1.28,4.26-1.4,5.67-.31,17.23-3.53,19.79-4.52.32-.12.72-.27,1.18-.43,2.8-1.01,8.63-3.1,8.4-5.69-.29-3.17-4.48-6.92-5.81-7.59-1.08-.54-6.97-1.56-10.4-1.56-2.95,0-8.95-3.55-10.94-6.05-.53-.53-.8-1.27-.71-2.01.19-.84-.67-2.75-2.08-3.94-.79-.81-1.96-1.12-3.05-.78-4.44,1.96-8.65,4.41-12.55,7.3-2,1.63-4.7,5.34-6.67,8.05-.83,1.15-1.55,2.14-2.05,2.73-1.93,2.31-5.97,6.15-11.37,5.81-4.27-.46-8.49-1.34-12.58-2.65-.14-.04-.26-.13-.35-.24-3.91-5.04-10.14-12.84-11.28-13.68-.33-.24-.82-.68-1.5-1.28-2.71-2.42-8.36-7.44-13.18-7.95-4.77-.5-8.02-4.07-10.16-6.43-.56-.68-1.19-1.3-1.88-1.85-2.02-1.32-10.72-11.58-11.72-12.77l1.23-.74c2.69,3.18,9.71,11.29,11.27,12.31.79.61,1.51,1.31,2.15,2.08,2.12,2.33,5.02,5.52,9.25,5.96,5.28.56,11.16,5.79,13.98,8.3.62.55,1.12.99,1.39,1.2,1.61,1.18,9.93,11.85,11.43,13.78,3.92,1.23,7.95,2.07,12.03,2.51,4.77.3,8.43-3.19,10.18-5.3.46-.56,1.17-1.53,1.99-2.66,2.02-2.77,4.78-6.57,6.92-8.32,4.01-2.98,8.35-5.5,12.92-7.52,1.57-.55,3.32-.16,4.5,1.03,1.74,1.48,2.88,3.88,2.54,5.35,0,0-.02.29.59.99,1.87,2.15,7.29,5.33,9.67,5.33,3.28,0,9.57.97,11.03,1.71,1.42.71,6.24,4.82,6.6,8.74.33,3.7-5.72,5.87-9.34,7.17-.45.16-.84.3-1.15.42-2.7,1.05-14.32,4.29-20.23,4.62-1.71.1-2.82.4-3.27.92-.42.47-.39,1.21-.31,2.37.07.75.07,1.51.01,2.27-.38,3.83-8.86,9.17-11.59,10.08-4.81,1.6-10.17,3.84-11.1,4.99-.34.43-.89,1.27-1.52,2.24-1.79,2.76-4.24,6.54-6.48,8.03-3.59,2.09-7.3,3.98-11.09,5.67"/>
        <path class="st3" d="M425.49,155.85s5.13,10.78,6.11,13.71-.33,9.8,0,12.74,1.65,9.14,3.93,10.45,8.45,4.57,6.83,6.86,0,13.66,0,13.66"/>
        <path class="st7" d="M431.83,142.73l-1.12-.89c.81-1.01,7.99-9.87,11.86-10.21,3.28-.29,12.02.34,13.66,1.69.96.8,9.73,1.6,11.84,1.25,1.3-.22,5.61-3.12,8.24-5.09l2,.14c-.73.54-7.93,6.01-10,6.36-1.92.32-11.38-.24-12.98-1.56-1.04-.86-8.83-1.71-12.62-1.37-2.76.25-8.78,7.07-10.87,9.68"/>
        <path class="st7" d="M396.61,128.89c-2.78-5.11-8.38-15.16-9.64-16.67-.43-.51-1.15-1.25-1.92-2.04-2.97-3.04-5.05-5.3-4.77-6.8-.15-1.16-7.13-5.26-9.18-5.61-1.97-.33-8.11-4.57-9.06-5.23-2.6-1.13-7.21-2.82-8.64-2.6-2.62.39-7.3-2.55-8.39-3.41-1.32-1.05-2.27-7.99-2.62-10.93-.03-.23.06-.46.23-.61.07-.06,6.51-5.87,8.73-8.72,1.42-1.82,1.29-5.06,1.19-7.66-.08-1.04-.07-2.09.05-3.13.31-1.79-4.59-8.7-7.6-10.71-3.07-2.05-8-12.7-8.2-13.14l1.61.16c1.33,2.87,5.11,10.28,7.38,11.79,2.76,1.84,8.71,9.3,8.22,12.15-.09.94-.1,1.89-.03,2.83.11,2.83.24,6.36-1.49,8.59-2.7,3.06-5.58,5.95-8.63,8.66.52,4.24,1.43,9.02,2.05,9.61,1.29,1.02,5.46,3.39,7.29,3.11,2.35-.35,8.76,2.42,9.48,2.74.04.02.08.04.12.07,2.62,1.83,7.26,4.82,8.54,5.03,1.86.32,8.43,3.76,9.97,5.97.3.37.43.84.37,1.31-.17.88,2.91,4.03,4.38,5.54.82.84,1.53,1.56,1.99,2.12,1.66,1.99,9.46,16.29,9.79,16.9l-1.26.68Z"/>
        <path class="st3" d="M387.52,111.76s4.9-8.16,6.86-10.12,2.86-12.74,2.86-12.74c0,0,4.33-3.92,5.63,0s4.01,7.84,4.78,6.86,0-15.63,0-15.63c0,0,2.2-9.84.34-12.13s-4.47-16-5.45-17.63-1.63-10.45-.33-11.75,5.96-7.51,5.43-8.49-.26-3.89-.26-3.89"/>
        <path class="st0" d="M137.68,215.12c3.15,2.29,10.06,5.98,16.15,9.24,4.97,2.66,9.27,4.96,11.6,6.51,1.36.91,3.37,2.6,6.15,4.94,8.29,6.97,23.71,19.93,34.67,22.2,5.2,1.08,11.22,1.87,17.04,2.63,12.98,1.71,24.19,3.18,30.04,7.68,3.75,2.88,7.09,8.61,10.96,15.25,3.46,5.93,9.25,15.86,12.58,16.63,1.26.29,2.72.65,4.33,1.05,9.93,2.44,26.54,6.53,36.77,4.4,6.69-1.39,13.1-8.23,18.25-13.71,3.63-3.87,6.76-7.21,10.01-8.83,1.84-.92,5.4-4.27,8.54-7.23,7.39-6.96,14.37-13.53,21.02-12.42,6.4,1.07,15.17,5.47,26.8,13.46,8.52,5.86,18,11.42,31.82,9.51,14.84-2.05,35.96-16.31,38.28-18.99,1.69-2.09,9.67-17.16,17.53-32.64-1.7-.24-3.35-.77-4.87-1.57-5.52-2.76-6.21-3.7-4.83-11.17s-1.38-17.12-3.45-16.43,4.83-14.49,8.28-16.56,6.9-11.04,4.14-13.8,3.45-.69,5.52-6.21-2.07-15.87-4.83-20.7-1.38-11.06-4.83-14.5-4.83-4.82-8.28-4.13,3.45-10.35,4.83-15.18,4.14-13.8,0-16.56-7.59-6.9-16.56-8.28-16.56-10.35-15.18-13.8,7.59-2.76,10.35-2.76,4.14-4.14,4.14-9.66,3.45-12.42-1.38-17.25-5.52-6.57-3.45-10.18,5.52-17.62.69-15.79-13.11,6.66-15.87,4.58,4.83-11.04.69-12.42-6.9-4.14-11.04,0-12.76,7.04-15.7,6.97-11.22,6.84-11.22,6.84c0,0-9.66-11.04-14.49-10.35-4.83.69-8.28.63-11.04-.03s-4.83,5.69-8.28,3.55-2.07-12.1-2.76-12.98-8.42-2.2-8.42-2.2c0,0-7.45-4.81-11.59-4.16-4.14.65-11.73,8.22-11.04,13.06.69,4.84,2.67,19.07-.04,18.86s-13.76-2.65-18.58,4.09c-4.83,6.73-10.35,12.94-8.97,15.7s3.02,12.42-.22,13.8-10.82.69-11.51,4.14,4.83,10.35,6.21,13.11,4.83,17.94,2.07,20.01-13.8,6.9-13.8,6.9c0,0-6.21-4.14-9.66-6.21s-6.21-15.18-15.87-19.32-22.08-3.45-27.6-1.38-18.63,10.19-18.63,10.19c0,0-18.85,1.55-20.12,6.38s.8,23.46-3.34,27.6-11.04,8.97-8.97,15.18,3.38,8.97-.38,13.11,4.45,11.73,0,17.25-18.94,9.66-21.01,10.35-10.35,5.52-12.42,9.66-4.83,14.49-9.66,16.56c-3.48,1.49-9.44,1.55-13.55.95,1.02,1.91,2.36,3.63,3.96,5.09"/>
        <path class="st0" d="M576.14,229.97c-5.91-3.64-12.85-9.85-8-14.68s9.06-14.49,2.82-11.73-15.91,20.44-29.02,18.5-17.94-4.27-23.46,0-4.14,12.55-14.49,12.55c-.58,0-1.12,0-1.66.01-5.4,10.72-18.3,36.06-21.49,39.79-3.98,4.64-27.67,20.25-44.95,22.63-19.1,2.64-32.28-6.43-39.36-11.3-12.39-8.52-18.93-11.07-22.27-11.69-2.42.48-8.72,6.41-12.12,9.62-4.21,3.97-7.85,7.39-11.1,9.02-1.54.77-4.44,3.86-6.99,6.58-6.18,6.59-13.88,14.79-23.88,16.87-2.88.56-5.8.83-8.74.8-11.29,0-24.28-3.2-32.78-5.29-1.56-.38-2.97-.73-4.19-1.01-7.84-1.82-13.72-11.91-19.42-21.67-2.88-4.95-6.15-10.55-8.24-12.15-3.56-2.74-14.9-4.23-24.9-5.55-6.02-.79-12.24-1.61-17.82-2.76-13.62-2.82-29.76-16.39-39.4-24.49-2.23-1.88-4.34-3.65-5.2-4.22-1.89-1.26-6.17-3.55-10.71-5.98-6.71-3.59-13.66-7.31-17.4-10.03-4.62-3.36-8.45-10.63-12.61-19.09-.9-1.83-2.03-4.11-2.43-4.68.01.01-.04,0-.03-.03-2.57-2.52-5.37-4.79-8.38-6.78-8.28-4.83-26.22-13.8-31.05-17.94s-22.08-14.49-24.15-10.35,4.83,15.87,0,19.32-23.45,11.74-25.52,19.33-4.14,7.59-11.73,13.11-8.32,20.7-12.1,23.46-5.2,4.14,0,6.21,16.92,11.73,21.75,12.42,14.49,0,14.49,0c0,0,1.38,5.52,6.21,4.83s22.08-8.97,25.53-6.21,8.28,11.04,8.97,14.49,7.1,13.8,4.93,18.63.1,16.56,0,20.7-4.93,11.04-7,15.18-4.14,13.11-2.06,15.87-8.28,20.01-3.45,22.77,12.52,2.07,12.52,2.07c0,0,8.18,4.83,11.63,4.83s11.73-9.67,11.73-9.67c0,0,9.24-7.59,13.24-6.9s12.29-11.04,12.98-13.8,5.51-7.59,9.31-3.45,11.39,21.39,11.39,23.46,8.97,13.8,9.66,15.87,3.45,12.42,3.45,16.56,15.87,12.42,16.56,16.56,6.21,17.94,11.73,17.25,15.68-.69,17.15-2.76,2.16-11.04,6.99-12.42c2.7-.72,5.27-1.89,7.59-3.45,0,0,6.21,7.59,8.97,9.66s13.8,6.21,20.01,4.83c6.21-1.38,11.04-6.9,13.11-9.66s5.52-8.28,9.66-6.21,10.35.69,13.8-.69,5.52-7.59,6.9-9.66,9.66-3.45,11.73-4.14,4.83-8.97,7.59-9.66,4.83-4.83,6.21-1.38,6.21,15.18,8.97,15.18,8.28-2.76,15.87,1.38,14.49-3.45,14.49-5.52,6.9-12.42,9.66-8.97,0,13.11-.69,16.56,2.76,14.49,2.07,18.63,0,11.73,3.45,14.49,26.22,6.21,31.05,8.97,19.32,0,22.08-2.76,8.28-12.42,11.73-14.49,2.07-9.66,0-12.42,5.52-10.35,10.35-8.97,8.97-8.28,11.04-11.04,9.66-2.07,13.8-4.83,9.66-11.04,13.8-10.35,13.8-.69,15.18-3.45-1.38-8.97,3.45-11.04,6.9-9.66,6.21-12.42-4.57-5.52.13-6.21,8.15-3.45,9.53-7.59,2.76-8.28,8.28-9.66,4.83-11.04,0-11.73-19.32-4.14-18.63-6.9-2.07-13.8,2.76-15.18,13.11-4.83,15.87-13.11-2.58-16.56,3.89-20.7,21-4.83,26.15-2.07c5.15,2.76,9.05-2.07,10.9-7.59s4.02-16.86-1.9-20.51"/>
        <path class="st1" d="M123.72,285.98c-5.12,0-12.55-5.62-16.33-9.79-2.37-2.61-5.63-8.26-8.24-12.79-1.06-2-2.25-3.93-3.56-5.77-.76-.51-4.35.47-6.56,3.42-2.43,3.23-9.19,7.92-9.47,8.12l-.81-1.18c.07-.05,6.86-4.75,9.14-7.8,2.49-3.32,6.83-4.86,8.51-3.74.58.39,1.5,1.93,3.99,6.24,2.58,4.48,5.79,10.05,8.06,12.54,4.31,4.74,11.54,9.65,15.7,9.3,4.57-.38,14.15-4.6,15.25-9.38,1.16-5.05,1.17-11.27.01-15.12-.82-2.75-.43-5.64,1.01-7.37.9-1.11,2.3-1.67,3.72-1.49.83.1,1.66.22,2.49.36,3.69.59,9.27,1.48,12.58-.31,3.88-2.09,2.9-9.34,2.89-9.4l1.31,1.03c.05.31,1.24,7.05-3.52,9.62-3.74,2.02-9.37,1.12-13.49.46-.94-.15-1.75-.28-2.42-.35-.94-.13-1.88.24-2.47.98-1.12,1.35-1.42,3.78-.74,6.04,1.22,4.07,1.23,10.59.01,15.86-1.31,5.67-11.59,10.07-16.52,10.48-.18.01-.36.02-.54.02"/>
        <path class="st4" d="M82.78,318.27s3.34,2.15,4.97,1.83,4.57-3,6.86-1.83,4.25,5.42,6.21,5.75,11.1-2.94,13.06-6.04,7.18-8.98,11.43-8.33,13.39,4.24,15.67,3.59,11.1-13.39,14.04-15.67,8.9-3.59,7.88-4.57,2.9-17.31,5.84-19.92,8.49-10.12,7.84-12.73-14.92-10.51-14.92-10.51"/>
        <path class="st4" d="M162.9,292.99s6.49,8.39,10.41,11.05,9.14,13.44,8.82,16.7-2.58,12.08.01,15.02,11.74,7.18,10.43,10.45-.65,11.1-3.92,11.76-14.69-3.27-17.96-4.57-13.71-6.53-15.67-5.88c-1.58.44-3.2.71-4.84.79"/>
        <path class="st4" d="M191.63,351.12s13.68.32,15.64,1.63,1.63,7.84-1.96,9.8-8.49,3.92-6.86,7.51,9.57,4.57,10.01,6.86.87,9.47,0,13.39-.54,8.16,2.73,8.16,11.76-1.31,13.39,0,6.26,4.11,4.11,10.71"/>
        <path class="st4" d="M192.57,346.22s13.52-2.29,17.86-2.94,9.89-4.9,12.83-4.24c2.68.58,5.32-1.12,5.9-3.8.03-.15.06-.29.08-.44.56-2.94-4.48-8.82,0-6.86s9.7,10.06,11.66,8.95,8.49-4.05,10.12-3.4,9.47-.98,10.78-1.96,6.53-6.2,7.84-1.96,0,9.14,2.29,10.45,8.16,6.2,8.16,9.47-1.63,4.72,3.92,8.56,14.04,4.83,16.65,4.17,4.9-2.29,6.53-1.31,7.18,9.47,8.82,12.08,2.65,12.03,2.65,12.03"/>
        <path class="st1" d="M306.22,359.35c-.01-.11-1.05-11.43-1.69-14.62-.71-3.54,2.69-10.34,5.13-12.44.5-.39.78-1.01.75-1.65-.06-1.37-1.36-3.15-3.31-4.54-3.11-2.21-5.17-9.48-5.24-9.78l1.63.07c.1.2,1.75,6.63,4.44,8.54,2.33,1.65,3.83,3.81,3.91,5.64.06,1.08-.41,2.12-1.25,2.8-2.1,1.8-5.26,8.08-4.66,11.07.65,3.27,1.67,14.3,1.71,14.77l-1.43.13Z"/>
        <path class="st1" d="M192.18,343.81l-1.1-.91c.28-.34,7.02-8.42,12.72-10.1,1.12-.33,2.26-.62,3.37-.91,4.22-1.09,8.2-2.11,8.88-4.54.29-1.06.56-2.35.84-3.71.68-3.35,1.33-6.52,2.63-7.74.88-.83,3.21-1.41,5.91-2.08,2.46-.61,5.84-1.45,6.4-2.28.81-1.5,1.53-3.04,2.15-4.62,1.64-3.8,3.69-8.54,5.42-10.48,2.77-3.12,9.24-5.2,12.82-4.13,3.21.96,5.8,1.63,5.84,1.64l1.03,1.72c.55.28-4.04-1.01-7.28-1.99-3.03-.91-8.96,1.03-11.34,3.71-1.57,1.77-3.65,6.58-5.17,10.1-.66,1.66-1.42,3.28-2.28,4.85-.81,1.21-3.39,1.92-7.24,2.88-2.18.54-4.66,1.15-5.27,1.73-.97.92-1.65,4.28-2.21,6.99-.28,1.39-.55,2.7-.86,3.81-.9,3.22-5.27,4.35-9.9,5.54-1.1.28-2.23.58-3.32.9-5.28,1.55-11.96,9.56-12.02,9.64"/>
        <path class="st1" d="M466.02,393.39c-.12-.99-1.16-9.74-.49-12.05.56-1.9-1.53-7.59-4.42-10.8-2.04-2.27-7.35-3.95-11.61-5.29-1.54-.48-2.99-.94-4.11-1.38-2.42-.93-3.92.45-6.58,3.17-1.2,1.27-2.47,2.47-3.82,3.58-1.12.9-2.39,1.97-3.72,3.11-4.75,4.03-9.66,8.2-12.6,8.48-2.7.25-7.35-.4-11.08-.92-1.06-.15-2.11-.29-3.17-.42-2.99-.33-4.75-5.34-6.31-9.76-.4-1.13-.77-2.2-1.13-3.05-.8-1.75-1.82-3.39-3.02-4.88-1.23-1.46-2.2-3.12-2.88-4.9-.23-.85-.38-1.72-.44-2.6-.22-2.28-.39-4.08-4.3-5.16-2.53-.64-5.09-1.14-7.67-1.51-4.54-.73-7.14-1.2-8.04-2.32-1.41-1.77-3.83-10.48-2.72-13.43.82-2.2-2.87-10.4-4.97-11.9-2.17-1.55-4.15-7.13-5.59-11.21-.2-.56-.38-1.08-.55-1.54-1.31-3.6-4.02-16.29-4.14-16.84l1.32-.99c.03.13,2.89,13.84,4.16,17.34.17.46.35.99.55,1.55,1.22,3.45,3.26,9.23,5.07,10.52,2.42,1.73,6.61,10.54,5.48,13.57-.84,2.24,1.25,10.47,2.5,12.04.6.75,4.08,1.31,7.15,1.8,2.63.38,5.25.89,7.83,1.55,4.85,1.35,5.11,4.03,5.34,6.4.05.78.18,1.56.38,2.31.64,1.63,1.53,3.14,2.66,4.47,1.28,1.59,2.35,3.33,3.2,5.18.37.89.75,1.97,1.16,3.12,1.28,3.62,3.02,8.59,5.12,8.82.85.09,1.95.25,3.21.42,3.46.48,8.2,1.15,10.75.91,2.49-.23,7.65-4.62,11.8-8.14,1.34-1.14,2.61-2.22,3.75-3.13,1.3-1.08,2.53-2.23,3.69-3.46,2.52-2.59,4.7-4.82,8.11-3.51,1.09.42,2.52.87,4.03,1.35,4.43,1.4,9.94,3.14,12.24,5.7,3.04,3.38,5.47,9.62,4.73,12.16-.5,1.72.22,8.87.53,11.48l-1.41.18Z"/>
        <path class="st4" d="M425.76,297.4s-.61,7.74,0,8.85,1.59,12.21,2.9,14.83,6.53,8.49,8.82,8.82,18.94-.98,22.2,0,15.67,6.11,17.63,7.96,4.9,11.65,7.84,13.27,6.86,3.14,7.18,5.16,2.29,5.61,1.63,7.57-.06,5.55,1.6,6.86-1.25,7.42-1.25,7.42"/>
        <path class="st4" d="M490.97,256.73c1.9.43,3.66,1.34,5.12,2.63,2.78,2.29.81,11.76,0,14.04s-1.54,7.18,1.44,9.14,13.1,5.23,14.73,5.88c1.63.65,7.35,6.66,7.35,6.66"/>
        <path class="st4" d="M407.64,280.22s7.1-10.08,10.96-14.65,8.76-18.25,10.72-23.17,7.84-13.08,9.47-18.96,3.27-12.74,7.18-12.74,10.12,1.31,11.76,1.63c3.46.31,6.94-.25,10.12-1.63,3.27-1.63,9.23-5.07,9.23-5.07"/>
        <path class="st4" d="M359.28,271.71s-3.94-5.68-5.97-7.87-9.54-6.76-7.58-10.02,3.92-5.88,5.23-8.16.15-8.49,2.36-9.8,8.74-1.63,9.72-5.88,2.94-11.1,0-13.39-5.88-8.16-5.88-8.16l2.61-2.79s7.51,5.73,11.76,5.73,12.73,1.63,18.29,2.61,14.45,4.24,17.84,7.18,6.77,6.2,10.96,5.88,14.63-2.61,15.61-3.59,4.57,0,4.57,0"/>
        <path class="st1" d="M259.43,275.58l-1.25-1.75c.06-.36,1.05-6.91,5.11-10.53,1.69-1.44,3.54-2.68,5.51-3.7,1.89-1.06,3.51-1.97,4.13-3.19.99-1.97,1.77-9.05,2.01-11.9l-3.29-5.47c-.2-.34-.1-.78.24-.98.22-.13.48-.14.71-.02,1.03.55,4.09,1.91,5.77,1.68,1.64-.24,6.4-2.18,9.24-3.34.71-.3,1.43-.59,2.15-.87.11-.04,11.12-4.01,13.47-1.81,1.56,1.46,7.03,3.39,11.38,3.07,4.15-.3,13.19,2.76,19.17,4.78.74.25,1.44.49,2.06.69,5.69,1.9,11.37,8.97,11.61,9.27l-1.12.89c-.06-.07-5.66-7.04-10.94-8.8-.69-.23-1.38-.46-2.07-.7-5.51-1.87-14.74-4.99-18.61-4.71-4.57.33-10.45-1.59-12.46-3.46-1.12-1.05-8.4.77-12,2.11-.42.16-1.18.47-2.11.85-3.09,1.26-7.76,3.17-9.58,3.43-1.55.06-3.1-.23-4.52-.87l2.23,3.71c.08.13.11.28.1.43-.03.41-.83,9.97-2.18,12.66-.81,1.61-2.61,2.62-4.7,3.8-1.88.97-3.64,2.15-5.26,3.52-3.68,3.29-4.55,10.78-4.81,11.21"/>
        <path class="st4" d="M165.22,185.03s12.01,7.39,16.58,11.64,15.02,8.14,16.65,8.97,13.39,11.93,15.35,13.24,11.1,5.23,13.39,8.82,10.45,8.49,12.74,9.47,20.9.74,22.2,1.51,10.12,0,10.12,0c0,0,8.82-3.14,10.45-4.94s2.51-6.04,2.56-8.33-2.89-9.8-3.54-11.43,2.94-2.94-.98-3.26-9.14-1.63-10.12-2.61-1.96-7.84-.65-8.82,3.27-7.51,2.61-8.49-3.27-5.76-3.27-5.76c0,0,4.24-3.38,3.92-5.02s-2.61-3.92-4.57-5.55-1.95-2.29-1.95-5.22-.65-6.2-2.61-7.51c-2.74-1.48-5.57-2.78-8.47-3.92"/>
        <path class="st1" d="M195.45,204.29l-1.34-.51c.12-.3,2.9-7.45,7.83-8.15,1.11-.16,2.21-.28,3.27-.39,2.64-.29,5.62-.61,5.96-1.45.78-1.95,6.04-5.63,7.23-6.25,1.24-.64,8.18-1.19,10.38-1.35.78-1.53,3.77-7.38,4.64-8.83,1.13-1.88,8.46-7.46,10.14-8.13.93-.37,2.43-4,3.24-5.94.37-.9.69-1.67.96-2.2.78-1.55,3.45-2.43,5.61-3.14.6-.17,1.18-.39,1.74-.65.29-.3.87-.46,2.26-.84,2.13-.58,6.1-1.66,6.68-3.53.65-2.08.38-8.29.16-13.29-.1-2.21-.19-4.3-.19-5.76,0-4.84,3.86-11.47,9.61-13.63,5.43-2.04,9.75-5.18,10-6.63.31-1.85.98-9.88.92-9.96.05-.19.09-.38.11-.57l1.3.87c-.02.34-.58,7.94-.91,9.91-.41,2.43-5.86,5.84-10.9,7.74-5.11,1.92-8.68,8.02-8.68,12.29,0,1.43.09,3.51.19,5.7.23,5.37.5,11.45-.22,13.77-.81,2.62-4.94,3.74-7.67,4.49-.57.13-1.13.31-1.68.52-.68.45-1.45.78-2.25.95-1.59.52-4.26,1.4-4.77,2.42-.24.49-.55,1.24-.92,2.11-1.44,3.47-2.65,6.17-4.03,6.72-1.58.63-8.57,6.07-9.45,7.54-.96,1.59-4.74,9.02-4.78,9.1-.11.22-.34.37-.59.39-4.47.32-9.52.86-10.23,1.23-1.41.73-6.03,4.19-6.56,5.51-.66,1.64-3.37,1.93-7.13,2.34-1.05.11-2.14.23-3.23.39-4.11.59-6.67,7.18-6.7,7.25"/>
        <path class="st4" d="M282.36,211.05s6.22-2.31,11.12-1.65,12.22.37,13.46,1.65,11.36,2.31,12.99,0,5.55-3.61,7.18-3.29,11.76,4.1,12.73,4.66,13.46,0,13.46,0l3.52-2.23"/>
        <path class="st1" d="M359.81,207.85l-1.4-.27c.17-.89,1.04-5.37,1.74-6.42-.12-1.19-.4-2.36-.83-3.48-.47-1.27-.79-2.6-.93-3.96,0-1.55-1.53-4.55-2.01-5.27-.36-.08-1.28-.2-2.1-.31-4.58-.61-8.45-1.21-9.45-2.46-1.46-1.83-5.35-4.52-6.1-4.23-1.27,1.72-11.65,1.16-13.04.11-.37-.28-.9-.76-1.56-1.37-1.55-1.43-4.15-3.83-5.59-4.04-1.7-.25-11.32-.1-15.94-.03-1.4.02-2.45.04-2.86.04-2.15,0-2.55-3.82-2.87-6.88-.05-.52-.11-1.03-.18-1.55-.25-1.51,1.79-3.17,5.17-5.72,1.12-.75,2.15-1.62,3.08-2.6.98-1.63,3.01-8.38,1.43-10.28-2.08-2.51-4.48-11.62-4.42-16.79.05-4.44.02-9.42,0-10.75-1.27-1.02-6.57-5.29-8.06-7.07-1.72-2.07-2.88-7.18-2.92-7.37l1.72,1.06s.8,3.6,2.3,5.4c1.57,1.88,8.05,7.03,8.12,7.08.17.13.27.34.27.55,0,.06.06,5.95,0,11.12-.06,5.2,2.35,13.76,4.09,15.86,2.26,2.73-.41,10.43-1.31,11.93-.99,1.17-2.16,2.18-3.45,3.01-1.54,1.16-4.75,3.57-4.62,4.34.07.42.13.98.2,1.63.39,3.72.88,5.6,1.45,5.6.42,0,1.45-.01,2.84-.04,5.02-.08,14.36-.22,16.17.04,1.88.27,4.46,2.66,6.36,4.4.61.56,1.13,1.04,1.45,1.28,1,.75,10.07,1.09,11.1.13.27-.35.7-.55,1.14-.53h.03c2.04,0,6,3.35,7.13,4.78.73.91,6.19,1.63,8.52,1.94,2.29.3,2.59.35,2.85.61.49.49,2.49,4.24,2.49,6.38.16,1.21.44,2.39.86,3.53.77,2.47,1.18,3.91.65,4.7-.69,1.91-1.21,3.88-1.52,5.89"/>
        <path class="st1" d="M360.17,197.71l-.59-1.3c3.72-1.67,7.36-3.52,10.89-5.56,2-1.33,4.45-5.12,6.08-7.62.68-1.04,1.21-1.87,1.6-2.35,1.6-1.99,10.08-4.89,11.76-5.46,3.08-1.03,10.35-6.18,10.62-8.86.05-.68.05-1.36-.02-2.03-.08-1.27-.16-2.47.67-3.41.75-.85,2.06-1.28,4.26-1.4,5.67-.31,17.23-3.53,19.79-4.52.32-.12.72-.27,1.18-.43,2.8-1.01,8.63-3.1,8.4-5.69-.29-3.17-4.48-6.92-5.81-7.59-1.08-.54-6.97-1.56-10.4-1.56-2.95,0-8.95-3.55-10.94-6.05-.53-.53-.8-1.27-.71-2.01.19-.84-.67-2.75-2.08-3.94-.79-.81-1.96-1.12-3.05-.78-4.44,1.96-8.65,4.41-12.55,7.3-2,1.63-4.7,5.34-6.67,8.05-.83,1.15-1.55,2.14-2.05,2.73-1.93,2.31-5.97,6.15-11.37,5.81-4.27-.46-8.49-1.34-12.58-2.65-.14-.04-.26-.13-.35-.24-3.91-5.04-10.14-12.84-11.28-13.68-.33-.24-.82-.68-1.5-1.28-2.71-2.42-8.36-7.44-13.18-7.95-4.77-.5-8.02-4.07-10.16-6.43-.56-.68-1.19-1.3-1.88-1.85-2.02-1.32-10.72-11.58-11.72-12.77l1.23-.74c2.69,3.18,9.71,11.29,11.27,12.31.79.61,1.51,1.31,2.15,2.08,2.12,2.33,5.02,5.52,9.25,5.96,5.28.56,11.16,5.79,13.98,8.3.62.55,1.12.99,1.39,1.2,1.61,1.18,9.93,11.85,11.43,13.78,3.92,1.23,7.95,2.07,12.03,2.51,4.77.3,8.43-3.19,10.18-5.3.46-.56,1.17-1.53,1.99-2.66,2.02-2.77,4.78-6.57,6.92-8.32,4.01-2.98,8.35-5.5,12.92-7.52,1.57-.55,3.32-.16,4.5,1.03,1.74,1.48,2.88,3.88,2.54,5.35,0,0-.02.29.59.99,1.87,2.15,7.29,5.33,9.67,5.33,3.28,0,9.57.97,11.03,1.71,1.42.71,6.24,4.82,6.6,8.74.33,3.7-5.72,5.87-9.34,7.17-.45.16-.84.3-1.15.42-2.7,1.05-14.32,4.29-20.23,4.62-1.71.1-2.82.4-3.27.92-.42.47-.39,1.21-.31,2.37.07.75.07,1.51.01,2.27-.38,3.83-8.86,9.17-11.59,10.08-4.81,1.6-10.17,3.84-11.1,4.99-.34.43-.89,1.27-1.52,2.24-1.79,2.76-4.24,6.54-6.48,8.03-3.59,2.09-7.3,3.98-11.09,5.67"/>
        <path class="st4" d="M425.49,155.85s5.13,10.78,6.11,13.71-.33,9.8,0,12.74,1.65,9.14,3.93,10.45,8.45,4.57,6.83,6.86,0,13.66,0,13.66"/>
        <path class="st1" d="M431.83,142.73l-1.12-.89c.81-1.01,7.99-9.87,11.86-10.21,3.28-.29,12.02.34,13.66,1.69.96.8,9.73,1.6,11.84,1.25,1.3-.22,5.61-3.12,8.24-5.09l2,.14c-.73.54-7.93,6.01-10,6.36-1.92.32-11.38-.24-12.98-1.56-1.04-.86-8.83-1.71-12.62-1.37-2.76.25-8.78,7.07-10.87,9.68"/>
        <path class="st1" d="M396.61,128.89c-2.78-5.11-8.38-15.16-9.64-16.67-.43-.51-1.15-1.25-1.92-2.04-2.97-3.04-5.05-5.3-4.77-6.8-.15-1.16-7.13-5.26-9.18-5.61-1.97-.33-8.11-4.57-9.06-5.23-2.6-1.13-7.21-2.82-8.64-2.6-2.62.39-7.3-2.55-8.39-3.41-1.32-1.05-2.27-7.99-2.62-10.93-.03-.23.06-.46.23-.61.07-.06,6.51-5.87,8.73-8.72,1.42-1.82,1.29-5.06,1.19-7.66-.08-1.04-.07-2.09.05-3.13.31-1.79-4.59-8.7-7.6-10.71-3.07-2.05-8-12.7-8.2-13.14l1.61.16c1.33,2.87,5.11,10.28,7.38,11.79,2.76,1.84,8.71,9.3,8.22,12.15-.09.94-.1,1.89-.03,2.83.11,2.83.24,6.36-1.49,8.59-2.7,3.06-5.58,5.95-8.63,8.66.52,4.24,1.43,9.02,2.05,9.61,1.29,1.02,5.46,3.39,7.29,3.11,2.35-.35,8.76,2.42,9.48,2.74.04.02.08.04.12.07,2.62,1.83,7.26,4.82,8.54,5.03,1.86.32,8.43,3.76,9.97,5.97.3.37.43.84.37,1.31-.17.88,2.91,4.03,4.38,5.54.82.84,1.53,1.56,1.99,2.12,1.66,1.99,9.46,16.29,9.79,16.9l-1.26.68Z"/>
        <path class="st4" d="M387.52,111.76s4.9-8.16,6.86-10.12,2.86-12.74,2.86-12.74c0,0,4.33-3.92,5.63,0s4.01,7.84,4.78,6.86,0-15.63,0-15.63c0,0,2.2-9.84.34-12.13s-4.47-16-5.45-17.63-1.63-10.45-.33-11.75,5.96-7.51,5.43-8.49-.26-3.89-.26-3.89"/>
      </g>
    </g>
  </g>
</svg>